<?xml version="1.0" encoding="iso-8859-1"?>
<!-- Generator: Adobe Illustrator 19.2.0, SVG Export Plug-In . SVG Version: 6.00 Build 0)  -->
<svg version="1.1" id="Layer_1" xmlns="http://www.w3.org/2000/svg" xmlns:xlink="http://www.w3.org/1999/xlink" x="0px" y="0px"
	 viewBox="0 0 235.995 270" style="enable-background:new 0 0 235.995 270;" xml:space="preserve">
<g>
	<g>
		<ellipse style="fill:#F2F2F2;" cx="94.994" cy="259.347" rx="52.666" ry="10.653"/>
		<g>
			<path style="fill:#FDDBBB;" d="M93.37,174.092l3.588,38.637l0.6,38.395c0,0,13.178,11.954,17.852,6.855
				c5.368-5.857-9.8-10.939-9.8-10.939l1.653-34.989l0.553-38.824L93.37,174.092z"/>
		</g>
		<g>
			<path style="fill:#FDDBBB;" d="M67.913,174.461l3.558,38.223l0.22,38.398c0,0,13.053,12.091,17.78,7.041
				c5.429-5.8-9.686-11.04-9.686-11.04l1.998-34.968l0.974-38.354L67.913,174.461z"/>
		</g>
		<g>
			<g>
				<path style="fill:#343434;" d="M97.558,251.124l0.704,11.416l2.012-0.124l0.768-5.52c0,0,4.548,5.62,14.006,5.037
					c14.833-0.914-0.801-12.728-9.437-14.893c0,0,10.936,3.615,7.504,7.275C107.746,260.041,97.558,251.124,97.558,251.124z"/>
			</g>
		</g>
		<g>
			<g>
				<path style="fill:#343434;" d="M71.692,251.082l0.585,11.423l2.013-0.103l0.826-5.512c0,0,4.489,5.667,13.953,5.182
					c14.841-0.76-0.669-12.736-9.282-14.991c0,0,10.898,3.728,7.428,7.353C81.787,260.104,71.692,251.082,71.692,251.082z"/>
			</g>
		</g>
		<g>
			<g>
				<path style="fill:#FDD05D;" d="M51.161,30.751c0,0-27.871-21.845-45.081-1.633c-22.788,26.763,28.343,51.605-5.902,71.823
					C25.727,111.458,45.74,86.66,29.694,65.484C6.395,34.738,38.263,27.037,51.161,30.751z"/>
				<path style="fill:#FDD05D;" d="M20.59,70.338c-3-6-8-13-5-21c-2-1-4,1-6,2c-2-10,7-17,15-20c-3,0-7,0-10,0
					c6.009-8.263,16.533-8.062,26.484-6.602c-9.685-4.544-24.37-8.095-34.994,4.382c-22.788,26.763,28.343,51.605-5.902,71.823
					c6.338,2.609,12.333,3.04,17.523,1.897C23.857,93.667,24.987,81.017,20.59,70.338z"/>
				<path style="fill:#F2C348;" d="M51.161,30.751c0,0-4.084-3.198-10.087-6.015c-9.951-1.459-20.475-1.661-26.484,6.602
					c3,0,7,0,10,0c-8,3-17,10-15,20c2-1,4-3,6-2c-3,8,2,15,5,21c4.397,10.679,3.267,23.328-2.889,32.5
					c15.734-3.465,24.059-21.431,11.993-37.355C6.395,34.737,38.263,27.037,51.161,30.751z"/>
				<path style="fill:#FDDBBB;" d="M117.412,47.393c6.183,24.167-5.496,48.028-27.25,53.593
					c-21.753,5.565-45.343-9.273-51.526-33.44c-6.183-24.167,6.44-48.269,28.193-53.835
					C104.566,4.058,111.229,23.227,117.412,47.393z"/>
				<path style="fill:#FDD05D;" d="M50.923,40.822c0,0,33.665-0.311,61.677-13.628c-9.694-25.14-37.294-37.42-68.721-16.707
					C6.543,35.094,41.471,83.749,54.492,94.068c3.109-13.371,1.654-27.499,1.654-27.499s-6.882,5.796-8.549-3.371
					c-1.147-6.307,7.401-4.222,7.401-4.222L50.923,40.822z"/>
				<path style="fill:#553626;" d="M74.534,58.284c0.917,3.586,0.19,5.863-1.326,6.252c-1.517,0.388-3.248-1.261-4.166-4.846
					c-0.917-3.586-0.19-5.863,1.327-6.252C71.885,53.049,73.616,54.698,74.534,58.284z"/>
				<path style="fill:#553626;" d="M109.881,49.241c0.917,3.586,0.19,5.863-1.326,6.251c-1.517,0.388-3.248-1.261-4.166-4.846
					c-0.917-3.586-0.19-5.863,1.326-6.251C107.232,44.006,108.963,45.655,109.881,49.241z"/>
				<path style="fill:#EB7E87;" d="M83.225,77.258c1.388,5.424,6.91,8.696,12.334,7.309c5.424-1.388,8.696-6.91,7.309-12.334
					L83.225,77.258z"/>
				<path style="fill:#F2C348;" d="M100.59,23.338c-1,1-2,3-4,3c-11,1-20-7-30-1c3,4,1,7-2,9c-7,3-14-6-19-3c-9,6,2,18-2,28
					c0,0-3-1-4,0c-1,2,1,5,2,7c3,4,9,6,10,9c0.9,5.4,1.807,10.8,3.436,16.2c2.397-12.563,1.12-24.969,1.12-24.969
					s-6.882,5.796-8.549-3.371c-1.147-6.307,7.401-4.222,7.401-4.222l-4.075-18.154c0,0,33.665-0.311,61.677-13.628
					c-1.666-4.32-3.872-8.249-6.524-11.708c-3.75,0.358-7.36,1.579-10.485,3.852C97.59,19.338,101.59,20.338,100.59,23.338z"/>
				<path style="fill:#FDD05D;" d="M43.879,10.487C6.543,35.094,41.471,83.749,54.492,94.068c0.196-0.841,0.373-1.686,0.534-2.53
					c-1.629-5.4-2.536-10.8-3.436-16.2c-1-3-7-5-10-9c-1-2-3-5-2-7c1-1,4,0,4,0c4-10-7-22,2-28c5-3,12,6,19,3c3-2,5-5,2-9
					c10-6,19,2,30,1c2,0,3-2,4-3c1-3-3-4-5-4c3.125-2.273,6.735-3.494,10.485-3.852C93.295-1.18,69.905-6.666,43.879,10.487z"/>
			</g>
			<polygon style="fill:#FDDBBB;" points="76.465,93.202 77.47,108.85 87.087,127.258 94.271,107.771 93.266,92.123 			"/>
			<polygon style="fill:#343434;" points="77.47,108.85 57.723,116.585 64.17,160.615 58.479,183.173 120.617,179.184 
				112.874,157.488 113.386,112.073 94.271,107.771 87.087,127.258 			"/>
			<polygon style="fill:#F5F5F5;" points="94.271,107.771 98.005,108.611 87.597,135.192 73.822,110.279 77.47,108.85 
				87.087,127.258 			"/>
			<polygon style="fill:#F5F5F5;" points="77.47,108.85 73.822,110.279 73.251,124.16 78.27,121.311 84.292,121.908 			"/>
			<polygon style="fill:#F5F5F5;" points="94.271,107.771 98.005,108.611 100.413,122.416 95.071,120.232 89.175,121.594 			"/>
			
				<ellipse transform="matrix(0.9979 -0.0641 0.0641 0.9979 -8.9297 5.9335)" style="fill:#808081;" cx="88.046" cy="142.192" rx="2.447" ry="2.447"/>
			
				<ellipse transform="matrix(0.9979 -0.0641 0.0641 0.9979 -9.8668 6.024)" style="fill:#808081;" cx="88.987" cy="156.846" rx="2.447" ry="2.447"/>
			
				<ellipse transform="matrix(0.9979 -0.0641 0.0641 0.9979 -10.8061 6.1158)" style="fill:#808081;" cx="89.928" cy="171.501" rx="2.447" ry="2.447"/>
			<polygon style="fill:#343434;" points="120.352,192.577 60.58,198.375 60.719,183.03 118.377,179.327 			"/>
			<polygon style="fill:#CDCCCC;" points="60.719,183.03 60.587,189.726 118.688,181.413 118.377,179.327 			"/>
			<g>
				<g>
					<path style="fill:#F5F0E1;" d="M109.244,129.79c-1.107-4.64-2.069-9.322-2.882-14.037
						c-10.986,1.288-21.533,6.023-29.946,13.827c2.775,3.852,5.65,7.595,8.619,11.221
						C91.885,134.472,100.442,130.736,109.244,129.79z"/>
					<g>
						<path style="fill:#55655C;" d="M77.566,129.654c0.732,1.034,1.47,2.059,2.216,3.077c0.97,1.323,1.952,2.633,2.945,3.93
							c0.772,1.008,1.551,2.008,2.337,2.999c0.836-0.747,1.697-1.458,2.579-2.131c5.258-4.011,11.278-6.687,17.534-7.954
							c1.05-0.213,2.107-0.386,3.169-0.52c-0.309-1.248-0.607-2.5-0.895-3.755c-0.37-1.614-0.723-3.233-1.058-4.857
							c-0.258-1.249-0.506-2.5-0.743-3.754c-1.296,0.174-2.585,0.397-3.865,0.667c-7.572,1.599-14.808,4.881-21.11,9.716
							C79.611,127.89,78.573,128.75,77.566,129.654z M104.58,128.437c0.004,0.013,0.009,0.025,0.013,0.038
							c-2.546,0.535-5.05,1.297-7.48,2.284c1.026-1.356,1.328-3.522,0.531-5.677c-0.797-2.148-2.586-3.64-4.548-3.782
							c2.829-1.165,5.749-2.073,8.724-2.717c0.409,1.547,1.969,2.522,3.477,2.287c0.327,1.447,0.668,2.891,1.023,4.33
							C104.886,125.421,104.104,126.917,104.58,128.437z M80.842,132.146c1.202-1.031,1.53-2.875,0.691-4.226
							c2.487-1.889,5.121-3.533,7.862-4.924c-1.216,1.6-1.335,3.969-0.231,5.966c1.105,2.003,3.022,3.139,4.768,3.236
							c-2.358,1.184-4.628,2.589-6.773,4.209c-0.008-0.011-0.015-0.022-0.022-0.033c-0.889-1.3-2.57-1.645-3.716-0.664
							C82.551,134.534,81.691,133.345,80.842,132.146z"/>
					</g>
				</g>
				<g>
					<path style="fill:#F5F0E1;" d="M61.713,111.652c4.333-1.994,8.611-4.128,12.822-6.398c5.769,9.438,8.556,20.658,7.61,32.094
						c-4.744,0.195-9.463,0.244-14.148,0.147C68.746,128.198,66.403,119.161,61.713,111.652z"/>
					<g>
						<path style="fill:#55655C;" d="M81.488,132.45c-0.087-7.943-1.972-15.661-5.389-22.605c-0.577-1.173-1.198-2.325-1.861-3.452
							c-1.133,0.588-2.271,1.166-3.412,1.734c-1.484,0.739-2.976,1.46-4.474,2.166c-1.165,0.548-2.333,1.086-3.506,1.614
							c0.55,0.918,1.066,1.856,1.547,2.814c2.865,5.704,4.477,12.091,4.567,18.704c0.015,1.11-0.012,2.225-0.084,3.344
							c1.265,0.006,2.533,0.002,3.803-0.013c1.633-0.019,3.27-0.055,4.91-0.109c1.261-0.042,2.524-0.094,3.789-0.156
							C81.466,135.138,81.503,133.791,81.488,132.45z M67.13,111.119c1.351-0.609,2.697-1.232,4.037-1.869
							c0.747,1.332,2.476,1.957,3.946,1.324c1.33,2.738,2.418,5.595,3.248,8.54c-1.323-1.456-3.601-1.942-5.783-1.243
							c-2.187,0.703-3.705,2.277-4.138,3.922c-0.725-2.521-1.671-4.962-2.822-7.295c0.013-0.005,0.025-0.009,0.038-0.014
							C67.147,113.922,67.841,112.383,67.13,111.119z M72.997,135.623c0.064-1.507-1.245-2.617-2.816-2.514
							c-0.013,0.001-0.026,0.002-0.04,0.003c-0.05-2.688-0.345-5.341-0.87-7.927c1.155,1.314,3.232,2.12,5.49,1.753
							c2.252-0.364,4.042-1.921,4.551-3.865c0.598,3.015,0.931,6.102,0.98,9.225c-1.581,0.174-2.829,1.57-2.898,3.152
							C75.926,135.522,74.46,135.58,72.997,135.623z"/>
					</g>
				</g>
				<g>
					<path style="fill:#F5F0E1;" d="M90.747,104.766c-4.665-0.995-9.306-2.139-13.913-3.431
						c-3.559,10.474-3.817,22.031-0.386,32.982c4.671-0.85,9.286-1.838,13.836-2.959C87.513,122.452,87.818,113.12,90.747,104.766z"
						/>
					<g>
						<path style="fill:#55655C;" d="M77.009,133.31c1.248-0.216,2.491-0.442,3.731-0.678c1.612-0.307,3.217-0.63,4.814-0.97
							c1.242-0.264,2.48-0.538,3.713-0.822c-0.315-1.076-0.587-2.159-0.815-3.244c-1.362-6.472-1.19-13.057,0.354-19.25
							c0.259-1.04,0.557-2.069,0.892-3.085c-1.26-0.258-2.518-0.526-3.775-0.806c-1.616-0.359-3.23-0.737-4.84-1.132
							c-1.239-0.304-2.475-0.618-3.709-0.943c-0.4,1.245-0.753,2.505-1.059,3.776c-1.811,7.524-1.958,15.468-0.301,23.237
							C76.294,130.706,76.625,132.012,77.009,133.31z M87.52,108.395c0.013,0.002,0.027,0.003,0.04,0.005
							c-0.611,2.528-0.999,5.117-1.153,7.736c-0.783-1.509-2.609-2.713-4.898-2.919c-2.282-0.204-4.398,0.77-5.369,2.481
							c0.164-3.055,0.599-6.082,1.296-9.045c1.573,0.296,3.123-0.693,3.56-2.157c1.447,0.327,2.897,0.639,4.349,0.938
							C84.928,106.823,85.943,108.172,87.52,108.395z M80.667,131.424c-0.414-1.529-1.938-2.617-3.518-2.44
							c-0.636-3.057-0.989-6.142-1.067-9.215c0.922,1.785,3.01,2.912,5.287,2.773c2.283-0.137,4.133-1.38,4.971-2.914
							c0.055,2.638,0.348,5.291,0.89,7.925c-0.013,0.002-0.026,0.004-0.039,0.006c-1.556,0.244-2.59,1.614-2.196,3.07
							C83.557,130.907,82.115,131.172,80.667,131.424z"/>
					</g>
				</g>
				<g>
					<path style="fill:#F5F0E1;" d="M102.733,116.268c-3.881-2.773-7.681-5.672-11.391-8.694
						c-7.44,8.186-12.285,18.682-13.505,30.093c4.622,1.083,9.248,2.017,13.869,2.803
						C92.715,131.197,96.715,122.761,102.733,116.268z"/>
					<g>
						<path style="fill:#55655C;" d="M78.752,136.967c1.23,0.299,2.461,0.588,3.692,0.866c1.6,0.361,3.201,0.705,4.802,1.03
							c1.244,0.253,2.488,0.495,3.732,0.727c0.14-1.113,0.322-2.214,0.546-3.301c1.332-6.478,4.115-12.449,8.001-17.513
							c0.652-0.85,1.335-1.675,2.048-2.473c-1.053-0.739-2.1-1.487-3.14-2.244c-1.339-0.974-2.669-1.963-3.987-2.968
							c-1.015-0.772-2.023-1.554-3.026-2.344c-0.863,0.982-1.689,1.997-2.477,3.041c-4.661,6.178-7.963,13.405-9.541,21.19
							C79.135,134.293,78.918,135.624,78.752,136.967z M98.326,118.309c0.011,0.007,0.023,0.014,0.035,0.021
							c-1.569,2.075-2.957,4.294-4.142,6.634c-0.116-1.697-1.311-3.528-3.328-4.63c-2.012-1.097-4.34-1.048-5.913,0.134
							c1.369-2.736,2.975-5.339,4.795-7.777c1.324,0.898,3.141,0.609,4.124-0.559c1.197,0.877,2.402,1.742,3.614,2.594
							C96.576,115.834,96.969,117.476,98.326,118.309z M82.859,136.695c0.23-1.567-0.734-3.173-2.254-3.64
							c0.636-3.058,1.542-6.027,2.696-8.876c0.134,2.005,1.6,3.871,3.743,4.651c2.148,0.785,4.34,0.383,5.721-0.69
							c-1.001,2.441-1.79,4.991-2.344,7.622c-0.013-0.003-0.025-0.007-0.038-0.011c-1.524-0.397-3.018,0.448-3.238,1.94
							C85.716,137.374,84.287,137.042,82.859,136.695z"/>
					</g>
				</g>
				<g>
					<path style="fill:#E6E6E6;" d="M102.048,131.222c-18.761-3.686-30.64-9.176-36.915-12.786
						c2.349,5.913,3.399,12.418,2.863,19.059c3.272,0.068,6.562,0.06,9.864-0.015c-0.007,0.062-0.017,0.124-0.024,0.186
						c1.893,0.443,3.786,0.855,5.679,1.249c0.505,0.63,1.009,1.262,1.52,1.886c0.479-0.443,0.969-0.869,1.464-1.287
						c1.736,0.337,3.471,0.66,5.206,0.955c0.194-1.78,0.5-3.529,0.908-5.239C95.609,133.5,98.782,132.168,102.048,131.222z"/>
				</g>
				<g>
					<path style="fill:#F5F0E1;" d="M98.042,137.423l4.548-4.394c-0.719-0.06-22.259-3.567-38.584-12.68l1.262,6.564
						c-12.108,2.961-21.527,14.896-25.144,28.331c-5.718,21.236,5.104,27.132,21.614,33.311s31.164,5.603,38.531-14.051
						C104.2,164.015,105.228,147.606,98.042,137.423z"/>
				</g>
				<path style="fill:#F2F2F2;" d="M100.876,142.729c-0.75-1.894-1.686-3.68-2.834-5.306c-15.491-1.371-32.774-10.511-32.774-10.511
					S77.251,137.025,100.876,142.729z"/>
				<g>
					<path style="fill:#4E4E4E;" d="M71.966,161.035c0.445,0.784,0.875,1.567,1.289,2.353c0.413,0.786,0.736,1.608,0.969,2.465
						c0.233,0.857,0.346,1.746,0.34,2.667c-0.007,0.921-0.207,1.908-0.602,2.961c-0.284,0.756-0.687,1.421-1.21,1.995
						c-0.523,0.574-1.11,1.031-1.761,1.371c-0.652,0.341-1.358,0.562-2.118,0.661c-0.761,0.1-1.521,0.054-2.28-0.139l-0.683,1.822
						l-1.336-0.501l0.683-1.822c-0.699-0.354-1.302-0.819-1.81-1.394c-0.508-0.575-0.895-1.205-1.161-1.891
						c-0.267-0.684-0.409-1.415-0.426-2.191c-0.017-0.776,0.116-1.542,0.4-2.298l1.336,0.501c-0.425,1.133-0.43,2.256-0.015,3.366
						c0.415,1.11,1.141,1.967,2.177,2.571l4.63-12.351c-0.456-0.755-0.893-1.52-1.311-2.293c-0.419-0.772-0.752-1.567-1-2.383
						c-0.248-0.817-0.374-1.672-0.377-2.566c-0.004-0.894,0.182-1.84,0.557-2.839c0.283-0.756,0.684-1.414,1.202-1.974
						c0.517-0.56,1.105-1.017,1.761-1.372c0.656-0.355,1.365-0.581,2.126-0.681c0.76-0.099,1.521-0.053,2.28,0.139l0.562-1.498
						l1.336,0.501l-0.562,1.498c0.699,0.355,1.302,0.82,1.81,1.394c0.507,0.576,0.892,1.212,1.154,1.911
						c0.261,0.699,0.403,1.43,0.425,2.192c0.021,0.763-0.109,1.523-0.392,2.278l-1.336-0.501c0.425-1.134,0.43-2.256,0.015-3.366
						c-0.415-1.11-1.146-1.954-2.192-2.531L71.966,161.035z M69.591,151.601c-0.546,1.458-0.622,2.831-0.227,4.117
						c0.395,1.288,0.948,2.542,1.66,3.763l4.084-10.893c-1.168-0.253-2.273-0.097-3.316,0.466
						C70.75,149.618,70.016,150.467,69.591,151.601z M67.093,174.034c1.178,0.226,2.288,0.058,3.331-0.506
						c1.043-0.564,1.777-1.413,2.202-2.546c0.293-0.783,0.458-1.53,0.493-2.24c0.035-0.71-0.022-1.401-0.17-2.073
						c-0.149-0.671-0.371-1.332-0.666-1.981c-0.295-0.65-0.619-1.287-0.97-1.911L67.093,174.034z"/>
				</g>
			</g>
			<g>
				<path style="fill:#FDDBBB;" d="M57.487,187.298c0,0,6.902,8.621,12.126,2.285c5.224-6.336-5.359-9.741-5.359-9.741
					L57.487,187.298z"/>
				<polygon style="fill:#F5F5F5;" points="62.987,178.291 65.138,179.798 57.311,187.857 55.467,185.927 				"/>
				<path style="fill:#343434;" d="M57.723,116.585c0,0-47.675,28.344-2.39,70.758l9.238-8.845c0,0-35.099-23.944-5.121-50.118
					L57.723,116.585z"/>
				
					<ellipse transform="matrix(0.5944 -0.8042 0.8042 0.5944 -124.2459 115.2522)" style="fill:#808081;" cx="52.127" cy="180.791" rx="1.17" ry="1.172"/>
				
					<ellipse transform="matrix(0.5948 -0.8039 0.8039 0.5948 -125.2247 118.9006)" style="fill:#808081;" cx="55.322" cy="183.657" rx="1.17" ry="1.171"/>
			</g>
		</g>
		<g>
			<path style="fill:#FDDBBB;" d="M188.299,133.618c0,0,11.496-3.544,7.168-11.373c-4.328-7.828-12.013,1.533-12.013,1.533
				L188.299,133.618z"/>
			<g>
				<g>
					<polygon style="fill:#F5F5F5;" points="180.937,124.211 183.43,123.097 188.808,134.012 186.236,135.217 					"/>
				</g>
				<g>
					<path style="fill:#343434;" d="M106.802,114.676c0,0,19.084,52.531,80.705,20.376l-5.551-11.829
						c0,0-43.381,25.584-67.852-11.051L106.802,114.676z"/>
				</g>
				<g>
					
						<ellipse transform="matrix(0.8192 -0.5735 0.5735 0.8192 -45.2344 127.7189)" style="fill:#808081;" cx="179.938" cy="135.599" rx="1.247" ry="1.245"/>
				</g>
				<g>
					
						<ellipse transform="matrix(0.8194 -0.5732 0.5732 0.8194 -43.5154 129.5221)" style="fill:#808081;" cx="183.785" cy="133.817" rx="1.246" ry="1.245"/>
				</g>
			</g>
		</g>
	</g>
	<g>
		<g>
			<path style="fill:#F5F0E1;" d="M217.596,92.779c6.343,6.739,12.486,13.006,18.399,18.823
				c-17.267,2.923-31.58,10.736-41.431,21.949l-5.368-5.347c-1.709-2.851-3.52-5.838-5.431-8.982
				C191.749,107.449,203.386,98.273,217.596,92.779z"/>
		</g>
		<g>
			<path style="fill:none;" d="M188.772,116.571c2.505-2.981,5.275-5.752,8.289-8.289c-1.073,2.467-0.665,5.747,1.137,8.244
				c1.898,2.623,4.816,3.746,7.652,3.355c-3.537,2.395-6.779,5.088-9.696,8.047c-0.01-0.015-0.019-0.032-0.029-0.047
				c-1.156-1.796-3.279-2.058-4.584-0.481c-0.984-1.593-2.002-3.231-3.053-4.917C189.717,120.917,189.903,118.309,188.772,116.571z"
				/>
			<path style="fill:none;" d="M209.792,108.495c-2.227-2.633-5.629-4.033-8.4-3.576c3.528-2.526,7.334-4.761,11.388-6.676
				c1.712,1.898,4.992,2.612,7.441,1.747c1.83,1.941,3.639,3.836,5.426,5.687c-2.636,0.781-3.11,3.201-1.192,5.217
				c0.016,0.018,0.034,0.034,0.05,0.051c-4.826,1.527-9.355,3.473-13.544,5.798C212.432,114.43,212.135,111.267,209.792,108.495z"/>
			<path style="fill:#5A766A;" d="M190.756,128.88c0.449,0.743,0.891,1.475,1.325,2.198l1.721,1.714
				c0.95-1.105,1.94-2.18,2.974-3.22c7.773-7.825,17.87-13.752,29.697-17.197c2.193-0.639,4.445-1.193,6.751-1.659
				c-1.715-1.712-3.452-3.463-5.207-5.255c-2.053-2.095-4.132-4.245-6.237-6.45c-1.478-1.548-2.968-3.124-4.47-4.728
				c-1.856,0.731-3.668,1.524-5.433,2.379c-9.572,4.633-17.751,11.059-24.146,18.883c-0.991,1.211-1.939,2.456-2.843,3.732
				c0.86,1.4,1.7,2.769,2.52,4.108C188.565,125.274,189.682,127.106,190.756,128.88z M209.792,108.495
				c-2.227-2.633-5.629-4.033-8.4-3.576c3.528-2.526,7.334-4.761,11.388-6.676c1.712,1.898,4.992,2.612,7.441,1.747
				c1.83,1.941,3.639,3.836,5.426,5.687c-2.636,0.781-3.11,3.201-1.192,5.217c0.016,0.018,0.034,0.034,0.05,0.051
				c-4.826,1.527-9.355,3.473-13.544,5.798C212.432,114.43,212.135,111.267,209.792,108.495z M191.541,127.401
				c-0.984-1.593-2.002-3.231-3.053-4.917c1.229-1.568,1.414-4.175,0.283-5.913c2.505-2.981,5.275-5.752,8.289-8.289
				c-1.073,2.467-0.665,5.747,1.137,8.244c1.898,2.623,4.816,3.746,7.652,3.355c-3.537,2.395-6.779,5.088-9.696,8.047
				c-0.01-0.015-0.019-0.032-0.029-0.047C194.97,126.086,192.846,125.824,191.541,127.401z"/>
		</g>
	</g>
	<g>
		<g>
			<path style="fill:#F5F0E1;" d="M213.757,89.67c7.084,6.039,14.056,11.831,20.911,17.381
				c-16.948,4.382-30.922,13.672-40.319,26.287l-4.749-4.731c-1.989-2.507-4.084-5.142-6.285-7.92
				C190.24,107.739,200.718,97.048,213.757,89.67z"/>
		</g>
		<g>
			<path style="fill:#5A766A;" d="M208.701,94.313c-8.761,5.873-16.144,13.356-21.79,22.068c-0.874,1.349-1.708,2.727-2.498,4.133
				c0.943,1.175,1.868,2.326,2.774,3.451c1.279,1.589,2.52,3.128,3.721,4.62c1.018,1.264,2.007,2.494,2.968,3.691
				c1.017-1.378,2.087-2.716,3.208-4.014c7.374-8.536,16.987-15.295,28.259-19.704c2.09-0.818,4.236-1.556,6.436-2.209
				c-1.986-1.619-3.982-3.261-5.989-4.924c-2.347-1.945-4.708-3.92-7.084-5.925c-1.668-1.408-3.342-2.831-5.024-4.269
				C211.978,92.202,210.316,93.23,208.701,94.313z M191.599,127.046c-1.104-1.342-2.24-2.723-3.405-4.142
				c1.107-1.721,1.082-4.252-0.174-5.723c2.227-3.318,4.712-6.45,7.437-9.373c-0.81,2.565-0.105,5.67,1.939,7.812
				c2.149,2.249,5.228,2.938,8.081,2.238c-3.346,2.713-6.408,5.705-9.156,8.944c-0.012-0.013-0.021-0.027-0.033-0.04
				C194.962,125.233,192.8,125.32,191.599,127.046z M223.491,101.866c-2.479,1.047-2.607,3.517-0.389,5.371
				c0.019,0.016,0.039,0.032,0.058,0.047c-4.582,1.945-8.877,4.285-12.845,6.98c1.212-2.397,0.494-5.483-2.181-7.942
				c-2.545-2.335-6.068-3.272-8.752-2.43c3.207-2.973,6.686-5.685,10.409-8.109c1.923,1.683,5.253,2.026,7.531,0.883
				C219.391,98.425,221.447,100.158,223.491,101.866z"/>
		</g>
	</g>
	<g>
		<path style="fill:#F5F0E1;" d="M193.641,132.564c-3.477-3.408-7.25-7.132-11.296-11.195c6.034-13.693,15.46-25.459,27.393-34.304
			c7.582,5.386,15.141,10.722,22.674,16.006C216.045,108.7,202.588,119.056,193.641,132.564z"/>
		<g>
			<path style="fill:#5A766A;" d="M205.278,92.279c-8,6.817-14.661,15.055-19.661,24.351c-0.774,1.44-1.509,2.904-2.203,4.393
				c0.997,0.987,1.978,1.954,2.943,2.901c1.362,1.336,2.691,2.633,3.987,3.892c1.098,1.066,2.171,2.106,3.219,3.118
				c0.963-1.441,1.977-2.846,3.04-4.213c6.985-8.994,16.089-16.353,26.767-21.533c1.98-0.961,4.013-1.847,6.097-2.655
				c-2.18-1.53-4.363-3.066-6.549-4.607c-2.555-1.802-5.115-3.612-7.678-5.43c-1.799-1.276-3.6-2.556-5.403-3.84
				C208.273,89.813,206.752,91.022,205.278,92.279z M190.952,126.248c-1.192-1.136-2.411-2.301-3.656-3.498
				c1.002-1.82,0.81-4.259-0.532-5.507c1.986-3.54,4.219-6.919,6.681-10.115c-0.592,2.613,0.341,5.545,2.559,7.387
				c2.33,1.934,5.511,2.279,8.347,1.344c-3.155,2.939-6.039,6.134-8.626,9.556c-0.013-0.011-0.023-0.024-0.036-0.034
				C194.236,124.071,192.061,124.427,190.952,126.248z M220.702,98.55c-2.32,1.258-2.167,3.749,0.269,5.458
				c0.021,0.015,0.043,0.029,0.064,0.043c-4.325,2.277-8.379,4.917-12.121,7.885c0.986-2.446-0.067-5.447-2.98-7.631
				c-2.772-2.075-6.349-2.628-8.931-1.487c2.913-3.297,6.087-6.364,9.499-9.176c2.067,1.489,5.396,1.524,7.508,0.162
				C216.245,95.394,218.476,96.976,220.702,98.55z"/>
		</g>
	</g>
</g>
</svg>
