<?xml version="1.0" encoding="iso-8859-1"?>
<!-- Generator: Adobe Illustrator 19.2.0, SVG Export Plug-In . SVG Version: 6.00 Build 0)  -->
<svg version="1.1" id="Layer_1" xmlns="http://www.w3.org/2000/svg" xmlns:xlink="http://www.w3.org/1999/xlink" x="0px" y="0px"
	 viewBox="0 0 223.747 270" style="enable-background:new 0 0 223.747 270;" xml:space="preserve">
<g>
	<g>
		<path style="fill:#FDD05D;" d="M120.117,29.531c-0.06-0.061-0.121-0.122-0.181-0.183c-6.13-6.166-16.161-6.166-22.291,0
			c-0.06,0.061-0.12,0.121-0.181,0.182C89.458,37.64,80.145,50.81,80.145,68.213c0,15.82,3.824,28.645,28.645,28.645
			c24.821,0,28.645-12.825,28.645-28.645C137.436,50.81,128.123,37.64,120.117,29.531z"/>
		<g>
			<path style="fill:#343434;" d="M111.299,46.633v4.344c0.465,0.223,0.897,0.501,1.294,0.835c0.397,0.334,0.732,0.738,1.007,1.212
				l0.329-2.339h6.001v9.774h-6.33c0-1.476-0.432-2.617-1.294-3.425c-0.863-0.808-1.952-1.212-3.268-1.212
				c-0.246,0-0.515,0.042-0.802,0.125c-0.288,0.084-0.555,0.216-0.801,0.397c-0.247,0.181-0.446,0.404-0.596,0.669
				c-0.152,0.265-0.226,0.578-0.226,0.94c0,0.696,0.342,1.267,1.027,1.713c0.685,0.445,1.542,0.87,2.569,1.273
				c1.028,0.404,2.138,0.836,3.33,1.295c1.192,0.459,2.302,1.038,3.329,1.734c1.029,0.695,1.884,1.56,2.569,2.589
				c0.685,1.03,1.028,2.326,1.028,3.884c0,1.532-0.282,2.813-0.843,3.843c-0.562,1.03-1.282,1.859-2.158,2.485
				c-0.877,0.627-1.857,1.072-2.939,1.337c-1.083,0.265-2.158,0.411-3.226,0.439v4.302h-5.796v-5.472
				c-0.74-0.417-1.453-0.933-2.137-1.545l-0.453,2.506h-6.001V68.269h6.453c0,0.835,0.185,1.511,0.555,2.025
				c0.369,0.516,0.815,0.919,1.336,1.212c0.52,0.292,1.069,0.488,1.644,0.584c0.575,0.098,1.054,0.161,1.438,0.188
				c0.302,0,0.623-0.028,0.966-0.083c0.342-0.056,0.664-0.154,0.966-0.292c0.301-0.139,0.555-0.347,0.76-0.626
				c0.206-0.278,0.309-0.627,0.309-1.044c0-0.501-0.329-0.932-0.986-1.295c-0.658-0.362-1.48-0.724-2.466-1.086
				c-0.987-0.362-2.063-0.766-3.227-1.212c-1.165-0.444-2.24-1.03-3.227-1.753c-0.986-0.724-1.808-1.608-2.466-2.653
				c-0.658-1.045-0.986-2.345-0.986-3.905c0-1.392,0.232-2.59,0.699-3.593c0.466-1.002,1.062-1.83,1.788-2.485
				c0.726-0.654,1.534-1.155,2.425-1.504c0.891-0.348,1.761-0.549,2.61-0.606v-3.509H111.299z"/>
		</g>
		<path style="fill:#FDD05D;" d="M116.868,24.222L124.632,7l-11.916,2.353L108.188,0l-3.469,9.675L92.949,7l7.764,17.222
			C105.375,20.83,112.206,20.83,116.868,24.222z"/>
	</g>
	<path style="fill:#F1F2F2;" d="M209.548,245.199c0,11.812-43.723,24.801-97.659,24.801c-53.936,0-97.66-12.989-97.66-24.801
		c0-11.812,43.724-20.704,97.66-20.704C165.824,224.495,209.548,233.386,209.548,245.199z"/>
	<linearGradient id="SVGID_1_" gradientUnits="userSpaceOnUse" x1="85.6838" y1="207.7876" x2="65.6778" y2="152.8216">
		<stop  offset="0.457" style="stop-color:#795933"/>
		<stop  offset="0.6556" style="stop-color:#8C683B"/>
		<stop  offset="0.857" style="stop-color:#9C7342"/>
		<stop  offset="1" style="stop-color:#A17744"/>
	</linearGradient>
	<polygon style="fill:url(#SVGID_1_);" points="113.294,197.738 112.474,137.697 35.322,163.87 37.817,219.971 	"/>
	<linearGradient id="SVGID_2_" gradientUnits="userSpaceOnUse" x1="140.4215" y1="208.1513" x2="160.7726" y2="155.1348">
		<stop  offset="0.457" style="stop-color:#795933"/>
		<stop  offset="0.6556" style="stop-color:#8C683B"/>
		<stop  offset="0.857" style="stop-color:#9C7342"/>
		<stop  offset="1" style="stop-color:#A17744"/>
	</linearGradient>
	<polygon style="fill:url(#SVGID_2_);" points="190.858,220.018 189.272,166.075 112.474,137.697 113.294,197.738 	"/>
	<polygon style="fill:#C08D4F;" points="189.272,166.075 112.474,137.697 150.125,138.185 223.747,161.028 	"/>
	<polygon style="fill:#DCA35A;" points="35.322,163.87 112.474,137.697 70.222,137.36 0,161.386 	"/>
	<g>
		<g>
			<g>
				<g>
					<g>
						<g>
							<path style="fill:#FCD0A8;" d="M135.523,96.382c-0.15-16.208-14.655-18.549-15.246-13.119
								c-0.806,7.445,1.861,7.794,3.613,12.367c1.151,3.008,2.246,7.634-7.815,9.301c-10.025,1.66-26.419-2.108-26.343-8.178
								c0.06-4.939,7.2-10.007,2.805-14.664C86.033,75.192,78.13,89.5,80.17,99.305c1.698,8.162,16.906,11.372,16.906,11.372
								c-5.194,1.461-11.094-0.123-16.021-2.088C66.27,102.7,64.225,93.833,60.504,98.02c-8.001,9.01,7.915,17.982,18.769,18.999
								c7.594,0.712,14.356-0.548,14.356-0.548c-3.857,2.039-7.878,2.574-11.853,2.98c-13.148,1.343-18.099-7.193-21.283-3.281
								c-5.553,6.82,5.372,12.414,22.021,9.024c7.892-1.609,13.477-4.007,13.477-4.007c-2.459,2.725-4.892,3.419-7.716,4.453
								c-9.289,3.407-17.827-0.079-16.427,6.922c1.037,5.182,12.366,2.486,20.797-1.922c7.23-3.781,6.136-4.656,6.136-4.656
								l-0.188,38.074l21.679-1.861l-1.071-47.943C128.643,110.697,135.624,107.265,135.523,96.382z"/>
							<g>
								<polygon style="fill:#F5F0E1;" points="95.789,133.206 121.792,133.279 121.761,141.013 95.824,141.131 								"/>
								<polygon style="fill:#231F20;" points="94.516,137.971 123.286,137.406 125.16,220.614 93.537,220.823 								"/>
							</g>
						</g>
					</g>
					
						<ellipse transform="matrix(0.8283 -0.5603 0.5603 0.8283 -59.6599 91.2113)" style="fill:#595A5C;" cx="118.982" cy="142.941" rx="2.267" ry="2.266"/>
					
						<ellipse transform="matrix(0.8283 -0.5603 0.5603 0.8283 -63.82 92.643)" style="fill:#595A5C;" cx="119.233" cy="150.441" rx="2.266" ry="2.266"/>
					
						<ellipse transform="matrix(0.8283 -0.5603 0.5603 0.8283 -67.98 94.0739)" style="fill:#595A5C;" cx="119.484" cy="157.941" rx="2.266" ry="2.266"/>
				</g>
			</g>
		</g>
	</g>
	<g>
		<polygon style="fill:#DCA35A;" points="35.322,163.87 110.025,191.755 109.703,265.93 37.817,240.586 		"/>
		<polygon style="fill:#C08D4F;" points="189.272,166.075 191.502,240.632 109.703,265.93 110.025,191.755 		"/>
		<polygon style="fill:#D1D3D4;" points="110.025,191.755 126.673,224.861 209.548,191.326 189.299,166.062 		"/>
		<polygon style="fill:#E3A85E;" points="110.025,191.755 135.076,224.779 217.95,191.243 189.299,166.062 		"/>
		<polygon style="fill:#D1D3D4;" points="110.025,191.755 35.322,163.87 19.82,194.366 92.655,224.753 		"/>
		<polygon style="fill:#C99353;" points="110.025,191.755 35.322,163.87 9.278,194.474 82.113,224.861 		"/>
	</g>
</g>
</svg>
