<svg style="position: absolute; width: 0; height: 0;" width="0" height="0" version="1.1" xmlns="http://www.w3.org/2000/svg" xmlns:xlink="http://www.w3.org/1999/xlink">
<defs>
<symbol id="icon-phone" viewBox="0 0 1024 1024">
<title>phone</title>
<path class="path1" d="M512 0c-282.767 0-512 229.233-512 512s229.233 512 512 512c282.778 0 512-229.233 512-512s-229.222-512-512-512zM647.352 823.316c-43.561-3.297-327.578-71.506-447.191-409.344-24.218-70.84 5.714-185.078 86.753-210.586 82.217-26.563 124.293 88.31 136.264 160.942l-71.721 71.649c0 0-2.028 44.78 96.123 142.93 98.038 98.089 142.889 96.092 142.889 96.092l83.333-83.261c52.664 11.11 158.208 78.172 158.208 78.172-13.117 99.021-80.261 164.444-184.658 153.405z"></path>
</symbol>
<symbol id="icon-credit" viewBox="0 0 1366 1024">
<title>credit</title>
<path class="path1" d="M288.195 0v231.365h-288.195v792.635h1160.743v-314.514h205.046v-709.486h-1077.594zM1077.594 940.864h-994.444v-137.112h994.444v137.112zM1077.594 610.767h-994.444v-296.253h994.444v296.253z"></path>
</symbol>
<symbol id="icon-hand" viewBox="0 0 754 1024">
<title>hand</title>
<path class="path1" d="M163.43 0v311.194c-60.191 75.1-144.681 185.999-160.748 238.275-17.859 58.112 58.061 209.203 89.242 304.312-8.52 48.701-21.852 99.625-40.069 170.22h301.394c0-53.74 38.031-108.79 87.47-188.14 10.639-17.060 18.657-32.696 25.303-47.729h288.082v-788.132h-590.674zM678.39 712.407h-191.078c3.369-26.9 3.185-54.098 2.243-85.176-1.597-52.623-4.434-107.817 13.445-171.766 17.889-63.939-3.656-151.091-80.456-128.891-48.65 14.060-69.888 87.030-73.718 150.589-6.011 99.635-73.882 93.389-93.133 87.368-6.605-2.068-12.022-8.253-16.538-16.589v-472.218h439.245v636.682z"></path>
</symbol>
<symbol id="icon-coins" viewBox="0 0 872 1024">
<title>coins</title>
<path class="path1" d="M421.601 895.488c-96.471 55.685-252.826 55.685-349.235 0-48.241-27.843-72.356-64.338-72.356-100.823v86.743c0 36.485 24.115 72.98 72.356 100.823 96.41 55.685 252.764 55.685 349.235 0 48.21-27.843 72.315-64.338 72.315-100.823v-86.743c0 36.495-24.105 72.98-72.315 100.823zM421.601 769.597c-96.471 55.675-252.826 55.675-349.235 0-48.241-27.843-72.356-64.348-72.356-100.823v86.743c0 36.475 24.115 72.98 72.356 100.833 96.41 55.665 252.764 55.665 349.235 0 48.21-27.843 72.315-64.348 72.315-100.833v-86.743c0 36.475-24.105 72.98-72.315 100.823zM72.366 595.405c96.41 55.665 252.764 55.665 349.235 0 96.42-55.685 96.42-145.981 0-201.677-96.471-55.675-252.826-55.675-349.235 0-96.492 55.695-96.492 145.992 0 201.677zM450.253 243.415c96.41 55.685 252.744 55.685 349.235 0 96.42-55.665 96.42-145.971 0-201.656-96.492-55.685-252.826-55.685-349.235 0-96.492 55.695-96.492 145.992 0 201.656zM421.601 643.676c-96.471 55.685-252.826 55.685-349.235 0-48.241-27.843-72.356-64.338-72.356-100.833v86.743c0 36.495 24.115 72.98 72.356 100.823 96.41 55.685 252.764 55.685 349.235 0 48.21-27.843 72.315-64.328 72.315-100.823v-86.743c0 36.495-24.105 72.98-72.315 100.833zM799.488 291.707c-96.492 55.675-252.826 55.675-349.235 0-48.241-27.843-72.346-64.348-72.346-100.823v86.743c0 36.475 24.105 72.98 72.346 100.823 96.41 55.665 252.744 55.665 349.235 0 48.21-27.843 72.315-64.358 72.315-100.823v-86.743c0.010 36.475-24.105 72.98-72.315 100.823zM799.488 795.361c-72.090 41.605-177.582 52.070-266.568 31.478v86.743c88.986 20.593 194.478 10.138 266.568-31.478 48.21-27.843 72.315-64.348 72.315-100.823v-86.743c0.010 36.475-24.105 72.98-72.315 100.823zM799.488 417.618c-72.090 41.615-177.582 52.070-266.568 31.488v86.743c88.986 20.593 194.478 10.127 266.568-31.498 48.21-27.822 72.315-64.328 72.315-100.823v-86.743c0.010 36.495-24.105 72.991-72.315 100.833zM799.488 543.529c-72.090 41.605-177.582 52.070-266.568 31.478v86.743c88.986 20.593 194.478 10.127 266.568-31.478 48.21-27.843 72.315-64.348 72.315-100.823v-86.743c0.010 36.465-24.105 72.98-72.315 100.823zM799.488 669.45c-72.090 41.615-177.582 52.081-266.568 31.498v86.743c88.986 20.593 194.478 10.127 266.568-31.498 48.21-27.832 72.315-64.338 72.315-100.833v-86.733c0.010 36.485-24.105 73.001-72.315 100.823z"></path>
</symbol>
</defs>
</svg>
